<svg xmlns="http://www.w3.org/2000/svg" viewBox="0 0 195.97 99.2"><defs><style>.cls-1{fill:#f15121;}.cls-2,.cls-3{fill:#4358ef;stroke:#3147ed;stroke-width:9px;}.cls-2{stroke-miterlimit:1;}.cls-3{stroke-miterlimit:10;}.cls-4{fill:#3147ed;}</style></defs><g id="Camada_2" data-name="Camada 2"><g id="Camada_1-2" data-name="Camada 1"><circle class="cls-1" cx="40.42" cy="94.7" r="4.5"/><line class="cls-2" x1="4.5" y1="0.2" x2="8.98" y2="98.94"/><line class="cls-3" x1="49.38" y1="4.69" x2="42.16" y2="79.04"/><line class="cls-3" x1="8.92" y1="50.7" x2="41.92" y2="50.7"/><path class="cls-4" d="M77.4,66.71H58c0,3.18.82,5.5,2.33,6.94a8.06,8.06,0,0,0,5.83,2.17,13.67,13.67,0,0,0,4.43-.64,22.9,22.9,0,0,0,4.18-2l2.1,3.89a19.89,19.89,0,0,1-11,3.37q-6.12,0-9.79-3.41t-3.66-10.8A18.63,18.63,0,0,1,54,58.61a12.45,12.45,0,0,1,12-7.59,12.46,12.46,0,0,1,6.31,1.5,9.83,9.83,0,0,1,4,4.11,12.9,12.9,0,0,1,1.34,6ZM60.74,57.27a10,10,0,0,0-2.46,5.42h13.9v-.26a7.7,7.7,0,0,0-1.63-5.35,5.92,5.92,0,0,0-4.62-1.78A6.8,6.8,0,0,0,60.74,57.27Z"/><path class="cls-4" d="M103,53.26q2.44,2.22,2.45,7V79.71h-5l-.32-2.42A16.84,16.84,0,0,1,90,80.47a9.81,9.81,0,0,1-4.34-.92,7,7,0,0,1-3-2.61,7.17,7.17,0,0,1-1.06-3.86,7.64,7.64,0,0,1,2.49-5.83,15.11,15.11,0,0,1,6.63-3.41A40.15,40.15,0,0,1,100,62.63V61.22a6.2,6.2,0,0,0-1.15-4.17,5,5,0,0,0-3.89-1.31,17.72,17.72,0,0,0-9.69,3.32l-2.42-3.83A22.32,22.32,0,0,1,95.64,51Q100.54,51,103,53.26ZM88.53,75a4.47,4.47,0,0,0,3,.83A16,16,0,0,0,100,73.27V66.64a26.56,26.56,0,0,0-9,1.72q-3.44,1.47-3.44,4.15A3,3,0,0,0,88.53,75Z"/><path class="cls-1" d="M137.77,35.22V79.71h-5l-.26-2a22.69,22.69,0,0,1-4.65,2.07,14.82,14.82,0,0,1-4.4.73,11.43,11.43,0,0,1-6.31-1.68,10.67,10.67,0,0,1-4-4.85,18.42,18.42,0,0,1-1.37-7.43,17.39,17.39,0,0,1,1.88-8.35,12.91,12.91,0,0,1,5.13-5.32A14.88,14.88,0,0,1,126.23,51a25.29,25.29,0,0,1,6.06.83v-16ZM119.6,73.46a6.67,6.67,0,0,0,5.42,2.3,14.12,14.12,0,0,0,7.27-2.11V56.32a17.64,17.64,0,0,0-5.61-1,8.9,8.9,0,0,0-4.62,1.18,8.13,8.13,0,0,0-3.19,3.66,14.36,14.36,0,0,0-1.18,6.19Q117.69,71.16,119.6,73.46Z"/><path class="cls-1" d="M150.39,78.53a11.83,11.83,0,0,1-4.46-5.29,18.59,18.59,0,0,1-1.47-7.55,16.56,16.56,0,0,1,1.91-8.39,11.51,11.51,0,0,1,5.17-4.78,17.45,17.45,0,0,1,7.39-1.5A13.4,13.4,0,0,1,166.39,53a11.86,11.86,0,0,1,4.46,5.26,18.38,18.38,0,0,1,1.47,7.52,16.7,16.7,0,0,1-1.91,8.45A11.51,11.51,0,0,1,165.24,79a17.57,17.57,0,0,1-7.39,1.49A13.4,13.4,0,0,1,150.39,78.53Zm16.19-12.84a12.39,12.39,0,0,0-2-7.43,6.94,6.94,0,0,0-6-2.77c-3,0-5.11.9-6.41,2.71a12.68,12.68,0,0,0-1.94,7.49,12.53,12.53,0,0,0,2,7.52,7.07,7.07,0,0,0,6.12,2.8Q166.58,76,166.58,65.69Z"/><path class="cls-1" d="M196,78.69a14.58,14.58,0,0,1-7,1.78,8.5,8.5,0,0,1-6.25-2.26q-2.29-2.26-2.3-6.79V56.12H174.8V51.79h5.61V45.48l5.49-.89v7.2h9.43l-.57,4.33H185.9V70.53c0,3.57,1.31,5.35,3.95,5.35a9.71,9.71,0,0,0,2.23-.25,13.45,13.45,0,0,0,2.36-.83Z"/></g></g></svg>