<svg xmlns="http://www.w3.org/2000/svg" viewBox="0 0 611.83 386.26"><defs><style>.cls-1{fill:#e7f3fe;}.cls-2{fill:#cce2ff;}.cls-27,.cls-3{fill:#9ec8ff;}.cls-25,.cls-3{opacity:0.5;}.cls-25,.cls-4{fill:#fff;}.cls-5{fill:#303c60;}.cls-6{fill:#4476bd;}.cls-7{fill:#3e6bab;}.cls-8{fill:#f09959;}.cls-9{fill:#a2dff2;}.cls-10{fill:#96cfe0;}.cls-11{fill:#e38540;}.cls-12{fill:#f5dc95;}.cls-13{fill:#a8ceff;}.cls-14{fill:#93bbf0;}.cls-15{fill:#75a1de;}.cls-16{fill:#2e5b9a;}.cls-17{fill:#6791c9;}.cls-18{fill:#f37168;}.cls-19{fill:#d54a41;}.cls-20{fill:#f2e5de;}.cls-21{fill:#a86b48;}.cls-22{fill:#7a4e34;}.cls-23{fill:#74b570;}.cls-24{fill:#9cd499;}.cls-26{fill:#94bdf2;}.cls-28{fill:#ffb8b3;}.cls-29{fill:#f39892;}.cls-30{fill:#fae8b6;}</style></defs><g id="Camada_2" data-name="Camada 2"><g id="Camada_1-2" data-name="Camada 1"><path class="cls-1" d="M69,33.71c92.14-34.21,185.8-4,249.32,61.91s196.83-45.47,267.52,20.3c48.25,44.88,26.15,160.27-40,210.25-89.93,67.94-424.93,70-480.51,46.67-95-39.84-.61-113.61-44.94-184.32C-31.93,105.09,28.26,48.83,69,33.71Z"/><path class="cls-2" d="M587.68,353.2c-46.12-2.26-203,1.56-250.76,3.05s-103.12-2-131.89-7S9.92,349.64,17.47,363.3s74.11,6.1,149.59,11.59,245.23-.68,283.52,0,73.41-1.37,122.75-4.11S614.42,354.5,587.68,353.2Z"/><rect class="cls-3" x="140.59" width="283.24" height="170.4"/><rect class="cls-4" x="154.05" y="8.45" width="260.01" height="152.39"/><path class="cls-5" d="M375.77,87.21c12.39-11.79,33.57-11.52,33.12,6.44s1,19.64,6.14,29.07c17.69,32.69-21.09,30.76-37.27,31.84s-14.83-29.4-12-46.29S372.14,90.66,375.77,87.21Z"/><path class="cls-6" d="M381.54,190.19c-4,33.36-11.19,58-12,73.84s-4,78.08-4,78.08,8.84-.61,9.65-1.95S391.8,303.7,391,282s15.8-54.73,15.8-54.73l-4-32.39Z"/><path class="cls-7" d="M385.36,204.71l-6.21,2.6c-1.69,10.58-3.57,20.09-5.21,28.53,9.89,6.39,15,27.69,17.18,40.7,1.12-14.56,8-32.17,12.25-41.9Z"/><path class="cls-6" d="M414.05,186.83s13.39,17.08,13,36.45c-.64,29.5-3.86,37.92,1.74,68.85,2.18,12.08-4.83,51.59-4.83,51.59s-6,.47-9.2-1.13c.26-2.9-3.87-50.13-11.93-71.84-3.91-10.52-9.39-40-12.34-56.85s-3.49-20.37-2.41-20.37S414.05,186.83,414.05,186.83Z"/><path class="cls-8" d="M337.76,139.4s.6-8.84-.36-11.57-9.17-5.11-9.17-5.11-.36,12.62.48,14.17,5.72,6,5.72,6Z"/><path class="cls-9" d="M384,133c-18.83,20.26-25,28.78-26.4,28.78-4.47-7.89-19.31-24.57-19.31-24.57L332,141.24s14.62,38.21,23.91,38.6,28.18-13.17,28.42-14.73S384,133,384,133Z"/><path class="cls-10" d="M364.36,177.86c9.2-3.75,19.75-11.59,19.93-12.75.24-1.56-.3-32.15-.3-32.15-4.11,4.41-7.69,8.33-10.8,11.76C369.82,157.27,370,171,364.36,177.86Z"/><path class="cls-9" d="M403.11,119.62s18,9,21.94,25-7.7,35.72-9.13,46.26-34.31,12.39-34.31,1.11c0-10.81-8.24-33.76-7.77-39.61,1.09-13.72,21.14-30.52,21.14-30.52Z"/><path class="cls-8" d="M397.88,98.91l7.73,23.85s-8.26,6.37-22.39,21.7c.55-10.2,9.1-21.32,9.1-21.32l-5.85-22.52Z"/><path class="cls-11" d="M401.48,110l-3.6-11.13-11.41,1.71,5.85,22.52s-.57.91-1.42,2.34A27.49,27.49,0,0,0,401.48,110Z"/><path class="cls-8" d="M393.62,104.3c-2.09,7.58-10.17,11.76-15.91,10.18s-7-8.31-4.88-15.9S381.26,86.12,387,87.7,395.7,96.71,393.62,104.3Z"/><path class="cls-9" d="M380.17,181.31c2.51,15.87-6.79,49.82-6.79,49.82s5.55,1.26,22.17-.35,23.94-18.2,26.44-18.66,3.79,15.43,5,16.69,1.42-20.08-1.81-28.46c-5.72-14.87-4.6-21.18-2.46-30.19C426.55,154.15,380.17,181.31,380.17,181.31Z"/><path class="cls-6" d="M365.93,334.3c1.5,6.09-1.46,10.91-5.41,14.43-3.22,2.86-13.11,4.07-12.63,5.5S360,356.11,364,355.52s5-2.5,9.9-2.5c3.21,0,3.8-2.61,2.37-5.83s-1.93-5-.63-7.9S365.93,334.3,365.93,334.3Z"/><path class="cls-6" d="M424.28,334.3c-.24,6.32-1,11,.57,13.95,6,5,11,10.69,9.06,11.08-9.06,1.87-12.51-3.56-17.63-5.1-6.29-1.89.59-9.79-1.87-19.93C413,328.67,423.9,330,423.9,330Z"/><path class="cls-10" d="M426.56,205.52a29,29,0,0,0-1.35-5.17c-5.72-14.87-4.6-21.18-2.46-30.19a7,7,0,0,0,.22-1.88c.48-1.6.93-3.23,1.32-4.87l-1.94-17.52-14-16.62c-10.49,15.37-3.41,34.49-5,45s-19.14,24-19.14,24l.57,3.74a9.5,9.5,0,0,0,10.68,8c7.24-1,16.75-3,21-7S424.17,202.21,426.56,205.52Z"/><path class="cls-8" d="M388.34,197.69s-7.76,2.17-8.69,2.66-1.44,3-1.44,3-4.44,3.86-2.74,5.23,4.74,4.82,8.76,3.21c2.46-1,4.37-10.05,6-10.12S388.34,197.69,388.34,197.69Z"/><path class="cls-9" d="M410.31,127.24c8.3.24,15.83,15.19,18.45,28.17s5.39,31.42,5.39,31.42-13.76,10.86-27.36,14c-11.86,2.77-17.92,3.85-17.92,3.85l-2.4-6.77,28.38-16.67s-10.44-19.65-11.48-34.49S404,127.06,410.31,127.24Z"/><rect class="cls-12" x="310.85" y="121.69" width="21.11" height="13.41" transform="translate(-18.98 65.74) rotate(-11.35)"/><path class="cls-8" d="M332.78,138.32c.29-5.43-2.4-12.85-3.95-12.84s.47,4.86-.36,8.08C328,135.3,332.78,138.32,332.78,138.32Z"/><path class="cls-5" d="M374.36,90.07c.45,14.89,17.85,13.75,22.62,12.83s-5.81,31.42,3.27,33.29c6.67,1.37,5.17-9.06,12.57-8.36,3.28.31,6.57,5.37,6.57,5.37a10.09,10.09,0,0,0-3-5.37c-2.51-2.25-9.07-16.07-10.79-26s-13.4-16.29-16.86-16.49-11.91,3.74-11.91,3.74Z"/><path class="cls-5" d="M400.1,139.56a3.53,3.53,0,0,1-.72-.08c-2.9-.62-4.31-3.67-4.43-9.61-.11-5.09.74-11.62,1.63-18.53.36-2.8.73-5.69,1-8.48a.44.44,0,0,1,.87.09c-.31,2.81-.68,5.7-1,8.5-1.72,13.38-3.35,26,2.12,27.18a3,3,0,0,0,.51.06c3.14,0,6-6.13,7.63-12.1a.43.43,0,0,1,.83.23C407.45,130.76,404.51,139.56,400.1,139.56Z"/><path class="cls-5" d="M398.93,143a3.43,3.43,0,0,1-2.57-1.14c-5.93-6.27-.07-37.72.19-39.06a.43.43,0,0,1,.51-.34.42.42,0,0,1,.34.5c-.06.33-6,32.35-.41,38.3a2.59,2.59,0,0,0,2.37.84c3.08-.41,4.86-4.58,6.43-8.27s2.95-6.95,5.5-6.86a.44.44,0,0,1,0,.87h-.07c-1.91,0-3.22,3.07-4.6,6.33-1.66,3.9-3.54,8.32-7.12,8.79A3.27,3.27,0,0,1,398.93,143Z"/><path class="cls-8" d="M397.62,105.76c-1.22,1.58-3.15,2.15-4.29,1.26s-1.08-2.89.15-4.47,3.15-2.14,4.29-1.25S398.85,104.18,397.62,105.76Z"/><path class="cls-5" d="M262.47,160.91c4.24,8.49.73,18.27-7.62,21.73s-17.6,1.5-21.85-7-1.09-18.68,7-22.75S258.22,152.42,262.47,160.91Z"/><path class="cls-5" d="M239.57,183.66c-.93,0-2.78-.33-5.13-2.42a13.13,13.13,0,0,1-3.9-7.38c-.73-3.85-.25-8.28,1.43-13.16a.44.44,0,0,1,.56-.26.42.42,0,0,1,.27.55c-1.64,4.73-2.11,9-1.4,12.71a12.21,12.21,0,0,0,3.62,6.89c3,2.64,5,2.16,5,2.16a.44.44,0,0,1,.54.3.45.45,0,0,1-.3.54A2.66,2.66,0,0,1,239.57,183.66Z"/><path class="cls-13" d="M252.56,194c4.83,1.08,10.94,14.51,13.92,23.11s8.13,19.45,11.47,22.79S303.28,251,303.28,251s-54.31.11-53.2,0S252.56,194,252.56,194Z"/><path class="cls-14" d="M281.39,246.65c-3-.43-13.7.95-9.13-1s3.93-4.35,3.93-4.35-6.48,5.41-7.65.68c-1-4.08-1.39-18.5-5.21-33-3.16-7.17-7.29-14.33-10.77-15.11,0,0-.12,5.08-.32,12.22,1.33,15.79,3.59,39,4.17,44.82,7.2,0,19.24,0,29.32,0l6.71-.32S284.37,247.07,281.39,246.65Z"/><path class="cls-13" d="M234.79,191s-15.37,8.59-19,10.42,10,55.45,13.07,57.75,29.71.39,32.75-2.5-2.33-11.79.29-29.58-8-33.15-9.38-33.11-10.29-3-10.29-3Z"/><path class="cls-14" d="M228.9,259.15c3,2.29,22.12,2.34,30.25-.18.91-.29,5.08-2,5.18-3.51-1-.18-4.88.29-6.46-.08-5.49-1.26-8.52-8.07-8.52-8.07s-3-1.09-9.8-3.95-4-11.55-4.14-15.37-6.69-16.33-18.95-25.81l-1.13.51C214.46,211.4,226.1,257,228.9,259.15Z"/><path class="cls-15" d="M334.53,217.07h-37L280.65,253h40.78l15.26-32.47A2.39,2.39,0,0,0,334.53,217.07Z"/><path class="cls-7" d="M282.86,253.46H260.58a2.5,2.5,0,0,1,0-5h20.68l14-30.09a2.5,2.5,0,1,1,4.54,2.11L285.12,252A2.49,2.49,0,0,1,282.86,253.46Z"/><path class="cls-8" d="M244.23,245.8c9.66,1.8,12,4,17.3,4.87,6,1,5.26,2.28.83,2.28s-15.58.18-19.41-.67S244.23,245.8,244.23,245.8Z"/><path class="cls-13" d="M214.63,202.4C207.22,226.08,196.72,253,198.39,253s44.2,1.72,45.87.29,1.2-6.93,1-7.64-24.18-5-24.18-5,3.16-6.14,4.35-18.15S216,197.91,214.63,202.4Z"/><path class="cls-8" d="M240.42,170.4l-6,21.81s10.08,15.73,12.85,14.33-1.55-12.79-1.55-14.33,4.32-17.52,4.32-17.52Z"/><path class="cls-11" d="M246,193.32a5.93,5.93,0,0,1-.21-1.11c0-1.55,4.32-17.52,4.32-17.52l-9.66-4.29-2,7.22A37.55,37.55,0,0,0,246,193.32Z"/><path class="cls-8" d="M262.75,170c1.13,6.33.38,14.72-5.23,16.86s-12.38-2-15.1-9.13-.39-14.71,5.22-16.85S261.39,162.49,262.75,170Z"/><path class="cls-8" d="M243.75,173.6c.78,2.21.1,4.47-1.53,5.05s-3.59-.74-4.38-3-.1-4.47,1.53-5S243,171.39,243.75,173.6Z"/><path class="cls-5" d="M262.81,162.1C260.9,176.94,242.88,175,242.88,175s-3.72-4.89-5.39-2.33,2.32-15,12.66-15.59C253.55,156.92,262.81,162.1,262.81,162.1Z"/><ellipse class="cls-5" cx="234.73" cy="155.83" rx="9.76" ry="9.16"/><polygon class="cls-16" points="215.29 360.75 217.52 360.75 231.93 293.96 227.02 293.96 215.29 360.75"/><polygon class="cls-16" points="284.69 360.75 282.45 360.75 265.68 291.6 270.59 291.6 284.69 360.75"/><path class="cls-16" d="M240.75,296.46c-8.94,0-14.6-1.6-18.22-5.12-4.48-4.37-5.41-11.13-5.42-19.94,0-6.94-.18-11.45-.55-15.1a2.5,2.5,0,0,1,5-.52c.39,3.83.56,8.5.57,15.61,0,8.93,1.15,13.67,3.91,16.36s8,3.9,16.62,3.69a98.66,98.66,0,0,0,18.74-2.32c6.08-1.24,10.47-2.13,15.68.36A2.5,2.5,0,0,1,274.9,294c-3.7-1.77-6.83-1.13-12.53,0a102.69,102.69,0,0,1-19.61,2.42Z"/><path class="cls-16" d="M220.44,253.24l13.69.57-3.65,37.79s-10.2-6.51-10-13.52S220.44,253.24,220.44,253.24Z"/><path class="cls-8" d="M288,256.76c11.57-1.75,15.51-1.2,22.59,12s16.51,36.92,21.93,40c8.17,4.61,10.88,15.93,14.23,15.42s5.51,1,1.86,4-9.54,5.61-11.55,5.07-3.58-9.24-8.84-12.07-3.68-5.14-3.34-7.64-15.36-14-27.2-28.33c-7.23-8.75-10.95-14.52-11.51-19.75A13.75,13.75,0,0,1,288,256.76Z"/><path class="cls-11" d="M316.7,304.56c-2.69-6.82-5.38-18.07-7.92-28.39-3.6-14.68-7.38-18.16-9.77-19.72-2.9-.73-6.32-.4-11,.31a13.75,13.75,0,0,0-1.83,8.68c.56,5.23,4.28,11,11.51,19.75,6.24,7.54,13.54,14.3,19,19.37Z"/><path class="cls-16" d="M291.53,268.36s-3.08,23.24-5.94,25.6c-2,1.69-3.51,1.8-4.94-5.13S282.88,256,282.88,256Z"/><polygon class="cls-8" points="289.08 280.94 260.58 285.73 276.67 262.65 288.92 260.16 296.26 261.85 289.08 280.94"/><path class="cls-16" d="M324.89,313.52c-.92,3.72-.81,6.47.8,7.85S333.36,333,333.36,333l1.89-.29-4.38-9.38Z"/><path class="cls-16" d="M337.07,333.23c2,.54,7.9-2,11.55-5.07s1.49-4.52-1.86-4a1.32,1.32,0,0,1-.56,0c-1.68,3.74-7.19,6.55-9,2.6s-9.31-11.71-12.35-13.38a.54.54,0,0,1,0,.18c-.34,2.5-1.92,4.82,3.34,7.64S335.05,332.69,337.07,333.23Z"/><path class="cls-11" d="M229.84,257.69c-10.11,18.15-3.21,29.68,9.08,30.86s31.69-1.07,43-10.47,20.6-19.33,19.3-20.82S229.84,257.69,229.84,257.69Z"/><path class="cls-8" d="M287.18,271.23c2.07-6.21,4.46-11,9.08-11.06,4.86-.09,7.85,2.43,8.05,10.38.25,9.47.59,40.82.15,54.76-.33,10.55,2.74,13.93,2.48,24.93-.19,8.28,8.64,4.1,5.23,8.4-2.35,2.95-9.33,2-13.62,1.44-3.82-.49,2-11.94-3.31-15-4.54-2.62-4.63-6.89-1.77-10.12s.32-12.79-1.59-19.48-4.87-13.93-6.82-29.74C284.5,281.22,285.92,275,287.18,271.23Z"/><path class="cls-16" d="M309.15,355.25a19.83,19.83,0,0,1-4.84,1c-3.19.11-4.15-3.39-4.36-8.15-.18-4.16-3.2-10.71-6.3-13.36a1.24,1.24,0,0,1-.18.22c-2.86,3.23-2.77,7.5,1.77,10.12,5.29,3.07-.51,14.52,3.31,15,4.29.54,11.27,1.51,13.62-1.44S311.63,355.62,309.15,355.25Z"/><path class="cls-16" d="M294.19,333.77s-4.64,4.85-4.22,6.86,1.86,7.12,2.1,11.05.45,8.44.45,8.44,1.67,0,1.8-.48,1.07-16,1.07-16Z"/><path class="cls-15" d="M225,256s-6,25.45,1.58,32.51,39,.71,46.45.28c5-.28,9.88,5.84,9.88,5.84s-3.5-14.2-1.12-25.67S288,256.76,288,256.76l-5.13-.72Z"/><path class="cls-13" d="M223.61,249.38c2.56,5.45-2.76,14.84-.9,17.55s12.56.38,19.56-5.26,20.25-6.87,20.25-6.87Z"/><path class="cls-16" d="M234.46,295.76c21.18.8,43.48.42,43.48-2.74s-.95-5.38-17.36-4.11-27.56,3-32.49,1.91S234.46,295.76,234.46,295.76Z"/><rect class="cls-16" x="159.58" y="252.95" width="303.1" height="5.77" rx="2.72"/><path class="cls-8" d="M500,175.66c2.06,7.24-3,14.69-8.48,16.26s-9.46-3.35-11.51-10.59.76-14.37,6.28-15.93S498,168.43,500,175.66Z"/><path class="cls-8" d="M469.07,315.87s14.16,22,16.07,22.94,6.69,1.19,4.9,4.77-2.51,17.68-4.19,18.4-16,2.39-13.85,0,3.47-1.19,4.56-5.5,2.6-12.42.57-14.09-14.45-16.73-14.45-16.73Z"/><path class="cls-8" d="M397.85,325.31s-17.2,28.35-20.39,30.9-13.7,6.37-5.1,7,12.75-2.87,18.16-4.46,12.11-2.55,9.56-6.69-1.49-13.18,4-18.92S397.85,325.31,397.85,325.31Z"/><path class="cls-17" d="M485.64,259.56s-42.59-1.11-59.47,12.75c-9.88,15-33.77,59.15-35.63,64,1.28,1.28,8.44,3.58,11.63,3.26,9.4-11.21,21.82-20.89,26.76-29.68,6.09-10.84,8-16.25,17.84-17.21s32.18-4.14,38.87-4.14S485.64,259.56,485.64,259.56Z"/><polygon class="cls-16" points="522.77 363.3 520.54 363.3 504.53 296.51 509.44 296.51 522.77 363.3"/><polygon class="cls-16" points="455.9 363.3 458.13 363.3 476.5 294.15 471.59 294.15 455.9 363.3"/><path class="cls-15" d="M509.9,256.65l-24.76,4.27s-32.9.3-47.94,3.1c-13.69,2.55-15.7,18.1,0,39.51,8.92,12.16,16.46,21.86,31.87,32.79,3.93-2.88,5.43-4,6.51-10.89-1.11-1.53-4-11.11-4.9-13-8.53-17.82-19.91-24.31-20.07-26.06,1.91-3.11,50.63,16.19,60.32,4.84C520.17,280.38,509.9,256.65,509.9,256.65Z"/><path class="cls-18" d="M510.93,200.59a26,26,0,0,0-19.38,4.82c-5.43,5.54-11.57,14.66-11.19,29.71.48,19.11-3,20.34.63,25.6,14.94,6.17,40.51,32.69,34.49,4.26-4.36-20.59,9.56-35.93-1.67-58.77C512.89,204.35,511.75,202.55,510.93,200.59Z"/><path class="cls-19" d="M480.36,242.31c-.3,10-1.7,12.9-.63,16,6.1.62,17.24,3.06,20,7,3.18,4.46,6.37,5.09,4.88,1.8s-5.41-8,.64-24,8.92-26.86,3-38Z"/><path class="cls-8" d="M510.93,200.59a77.7,77.7,0,0,1-5-20.18l-10.51,3.1s6,13.38.24,18.16c-1.22,1-2.63,2.25-4.1,3.74A26,26,0,0,1,510.93,200.59Z"/><path class="cls-11" d="M506.24,182.94,504,181l-8.57,2.53,0,.05A35.27,35.27,0,0,1,498.11,194c2.55-1.55,5.35-4.07,8.55-8.49C506.48,184.55,506.35,183.68,506.24,182.94Z"/><path class="cls-8" d="M503.53,203.58c-10.82,3.79-9.62,15.2-19.59,32-5.15,8.7-9.94,8.57-9.94,8.57a230.19,230.19,0,0,1-26.73-1.69c-9.16-1.12-9.74,1.61-3.37,3.89,12.85,4.59,26.19,9.54,36.94,8.34s29.14-28.62,30.09-35.77C512.24,209.07,509,201.68,503.53,203.58Z"/><path class="cls-16" d="M498,299l-2.06,0a102.69,102.69,0,0,1-19.61-2.42c-5.7-1.16-8.83-1.79-12.53,0A2.5,2.5,0,1,1,461.6,292c5.21-2.49,9.6-1.6,15.68-.36A98,98,0,0,0,496,294c9.41.24,15.17-1.17,18.11-4.44,2.63-2.91,3.4-7.77,2.44-15.28-.33-2.55-.66-4.66-1-6.53-.81-5.24-1.34-8.7-.68-14,.61-5,2.26-11.61,6.09-24.48a2.5,2.5,0,1,1,4.79,1.42c-7.15,24.08-6.78,26.43-5.25,36.33.29,1.89.62,4,1,6.65,1.17,9.07,0,15.2-3.68,19.27S507.88,299,498,299Z"/><path class="cls-19" d="M399,349.21c-11.42,5.58-17.56,8.78-21.22,8.47-.86-.07-1.58-.16-2.18-.25-4.07,2.4-10.57,5.25-3.26,5.79,8.6.64,12.75-2.87,18.16-4.46s12.11-2.55,9.56-6.69A8.51,8.51,0,0,1,399,349.21Z"/><path class="cls-19" d="M486.38,339.27c-.28,9-1.52,18-7.05,19.69a9.36,9.36,0,0,1-4,.35c-.87,1.08-1.93,1.09-3.35,2.67-2.15,2.39,12.18.72,13.85,0s2.39-14.81,4.19-18.4C491.51,340.64,488.55,340,486.38,339.27Z"/><path class="cls-15" d="M442.42,253.46H406.15a2.5,2.5,0,0,1-2.27-1.44l-14.65-31.54a2.5,2.5,0,1,1,4.54-2.11l14,30.09h34.67a2.5,2.5,0,0,1,0,5Z"/><path class="cls-8" d="M450,242.8c-7.33-.11-14.59-4.48-18.2-3.84s-15.4,8.82-13.91,9.13,10.83-4.52,11.15-4.59,2.33,3.35,7.32,4.61,0-3.74,15.51.93C461.93,252.08,450,242.8,450,242.8Z"/><path class="cls-20" d="M509.85,191.92l1.08,8.67s-9.49.57-14.2,3.22S485,214.14,485,214.14l5.69-9.8.82-6.26Z"/><path class="cls-20" d="M505.81,202.54c-7-1.32-10.3,5-14.86,15.29S478.58,240.64,477,242.25s-26.12,0-26.12,0-.74,7.12,0,8,5,.74,5,.74,1.7,1.36,3.29,2.43,15.08,3.09,21.35,2.77,12-.85,12.85-1.8,17.94-27.29,19-36.74S509.41,203.21,505.81,202.54Z"/><path class="cls-5" d="M485,159.21c-13.32.64-11.23,20.68-11.23,20.68s3.46,1.07,10.71-.13c-.56-2.15-.32-7.64-.32-7.64a50,50,0,0,0,1.91,7.16c1.54.71,3.27.08,6.22-.63,1.51,6.37,5.79,9.06,8.71,10,3.24,1,6.66,2.23,10.48.32s1.73-21.45-.3-25.38c-3.05-5.9-8.12-11.18-16.88-8.39A65.85,65.85,0,0,0,485,159.21Z"/><path class="cls-5" d="M508.21,183l5.44,8s-6,15.08,11.52,21.91c13.75,5.35,12.13,14.78,5.92,24.26s3.71,17.76,3.71,17.76,1.52-10.5,14.87-12.48c18.21-2.71,23.37-27.16,9.77-39.38-11.26-10.12-14.68-1.74-22.3-10.82s-22-3-22-3l-5.28-7.68Z"/><path class="cls-5" d="M565.7,227.61a.54.54,0,0,1-.21-.05.44.44,0,0,1-.17-.59c4.59-8.39.85-18.56-1-21.31-.2-.29-.39-.58-.59-.9-1.85-2.89-4.15-6.48-16.44-8.7-2.94-.53-5.32-2.28-7.85-4.13-5.24-3.85-11.18-8.21-24.08-2.27a.44.44,0,0,1-.37-.79c13.37-6.15,19.53-1.63,25,2.36,2.45,1.79,4.76,3.48,7.5,4,12.66,2.28,15.07,6,17,9.08.19.31.38.6.57.88a23.41,23.41,0,0,1,3.11,9,21.22,21.22,0,0,1-2,13.18A.43.43,0,0,1,565.7,227.61Z"/><path class="cls-5" d="M505.3,191.11a18,18,0,0,1-2.82-.23c-4.65-.69-10.87-3.33-11.36-18.17a.44.44,0,0,1,.42-.45.43.43,0,0,1,.45.42c.2,6.15,1.42,10.69,3.62,13.51a10.2,10.2,0,0,0,7,3.83c4.33.65,7.21-.15,8.54-2.39a.44.44,0,0,1,.75.45C510.69,190.1,508.48,191.11,505.3,191.11Z"/><path class="cls-10" d="M89.62,201.64c-15.46,8.84-37,45.58-32.43,51.58s28.91-9.77,28.91-9.77Z"/><path class="cls-5" d="M118.5,159c-5.91-.16-3.72-4.54-10.5-2.79-3.57.92-.94,2.39-5.57,1.91s-6.92-1-7.51,2.07-.86,4-3.09,4.46-3.24,4.46,0,7.17,1.66,3.82.94,6,1.73,2.39,3.06,4.46-1.23,2.46.69,4.26a6.78,6.78,0,0,0,4.59,1.63l8-15.42Z"/><path class="cls-16" d="M238.77,344.21s8.6.24,15.29-2.39,11.23-6.69,10-1.91-6.69,13-11.47,13.77-6.45,6.06-9.08,6.06-6.45-6.06-13.14-9.08C224.31,347.9,238.77,344.21,238.77,344.21Z"/><path class="cls-16" d="M171,343.4a33,33,0,0,0,9.91,8.46c6.5,3.58,14,5.31,9.35,6.93s-11.45,2.88-18.09.95c-4.65-1.35-10.1-1.63-11.54-3.83s1.69-7.72.39-16C160,333.33,171,343.4,171,343.4Z"/><path class="cls-7" d="M130.71,263.22s49.82,18.66,53.84,23.87,56.38,52.73,56.38,56.23S232,353.2,232,353.2,187.1,325.64,176,311.62s-38.37-20.77-52.83-22.07S130.71,263.22,130.71,263.22Z"/><path class="cls-6" d="M132.62,263.22s34.09-1.27,41.41,0,23.4,1.26,12.89,30.93c-8.24,23.25-11,52.69-11,52.69l-16.38,4s.65-52.94,8.47-67a263,263,0,0,0-30.63,6.91c-26.86,7.69-41.59,3.84-41.59,3.84l-4-14Z"/><polygon class="cls-21" points="104.16 175.21 95.83 199.82 106.35 206.75 112.31 185.49 104.16 175.21"/><path class="cls-22" d="M107.29,203.39l5-17.9-8.15-10.28-3,9A51.18,51.18,0,0,0,107.29,203.39Z"/><path class="cls-21" d="M125.4,179.38c.27,7.48-3.41,14-9.25,14.54s-11.18-5-11.91-12.46,3.41-14,9.25-14.53S125,167.57,125.4,179.38Z"/><path class="cls-9" d="M91.83,199.1c-25.57,17.27-9.67,45.17-4,65.56,4.78,17.37,4.62,27.86,5.34,27.86s18.3-2.63,28.33-11.71a153.49,153.49,0,0,0,16.82-17.87s-12.86-2.29-17.06-18.92c-2.13-8.44-1.16-13-6-26.41S91.83,199.1,91.83,199.1Z"/><path class="cls-9" d="M91.83,199.1l2.73-6.7s8.69,5.74,12.15,8.45a19.6,19.6,0,0,0,5.6,3.34s1.25,9.61.44,8.73C102.5,201.94,91.83,199.1,91.83,199.1Z"/><polygon class="cls-16" points="80.5 363.3 82.73 363.3 98.73 296.51 93.82 296.51 80.5 363.3"/><polygon class="cls-16" points="147.37 363.3 145.13 363.3 126.76 294.15 131.68 294.15 147.37 363.3"/><path class="cls-16" d="M105.36,299c-8.94,0-14.6-1.6-18.22-5.13-4.48-4.36-5.41-11.12-5.42-19.94,0-18.52-1-22.35-6.27-33.66A2.5,2.5,0,1,1,80,238.19c5.52,11.95,6.7,16.35,6.73,35.75,0,8.93,1.15,13.67,3.91,16.36s8,3.9,16.62,3.68A97.75,97.75,0,0,0,126,291.67c6.08-1.24,10.48-2.13,15.69.36a2.5,2.5,0,1,1-2.16,4.51c-3.7-1.76-6.84-1.13-12.53,0A102.8,102.8,0,0,1,107.37,299Z"/><path class="cls-7" d="M215.83,253.17H179.57a2.5,2.5,0,1,1,0-5h34.66l14-30.09a2.5,2.5,0,1,1,4.54,2.11L218.1,251.73A2.5,2.5,0,0,1,215.83,253.17Z"/><path class="cls-10" d="M92.77,224.24s6.37,19.44,14.26,27.48,23.75,10.75,28.72,10.43c-4-1.59-11.5-6.12-14.54-18.13-2.13-8.44-1.16-13-6-26.41-3.61-9.93-14.73-15.31-20.23-17.43,6.86,4.92,15.43,13,18.07,19.2C116,226.23,92.77,224.24,92.77,224.24Z"/><path class="cls-21" d="M180.71,241.3s11-5,12.19-4.54,13.38,7.83,13.38,9.05-10.75-4.54-10.75-4.54,1.19,3.18.47,4.71-9,1.53-16.43,1.05S180.71,241.3,180.71,241.3Z"/><path class="cls-9" d="M93.12,209.23C83,230,117.75,251,138.36,252.91S183.47,248,183.47,248l-2.76-6.74s-41.3-5.39-42.35-6.15S96.83,201.62,93.12,209.23Z"/><path class="cls-21" d="M106.3,175.91c.94,2.47.25,5-1.54,5.71s-4-.78-4.94-3.24-.25-5,1.54-5.71S105.36,173.44,106.3,175.91Z"/><path class="cls-5" d="M125.41,160.1c2.8-1.16,6-2.42,5,2.34-.42,2.07,0,1.49.74,3.4s-1.87,3.41-2.72,4.47,1.24,2.22-.46,3.49-3.94-.47-5.52,0c-4.73,1.41-4.14-2.3-6.8-3.08s-4-.65-4.46,1.05,1.86,7.29-.16,6.76-2.47,4-3,6.53-1.93-1.76-1.84-4.68c.14-4.47-1-6.35-2.62-7.6s-2.35-12.62,5.62-13.05,8-1.19,11.41-1.91S124.14,160.64,125.41,160.1Z"/><path class="cls-23" d="M571.92,290c5.08,4.63,2.87,9.27-.88,17.88s-4.41,40.4-4.41,40.4l3.09-.44s-.45-32.67,3.75-41.51,6-13.24,9.71-10.37S571.92,290,571.92,290Z"/><path class="cls-24" d="M569.13,284c.62-2.75,4.28-5.72,9.18-8.24-.73,4.05-3.06,10.68-.65,12,3.26,1.83.32-7.42,1.58-12.51a60.58,60.58,0,0,1,15.23-5l0,.06c-2.87,7.28-6.62,10.15-5.07,11.26,1.16.83,5-7.59,10-11.9,3.75-.2,6.93.3,8.81,1.79,2.9,2.3,4.85,4.34,1.93,11.34a13.14,13.14,0,0,1-6.34,2.3c-6.63.66-9.72.88-5.08,3.09,2.27,1.08,6.08-.06,9.16-.76-1,1.85-2.23,3.93-3.73,6.31a22.87,22.87,0,0,1-3.1,3.95,9.69,9.69,0,0,1-5,0c-3.09-1.32-11-5.52-13-3.75s14.72,2.82,13.57,7.22c-8.08,4.65-17.32,2.44-19-1.84C575.38,293.62,567.28,292.27,569.13,284Z"/><path class="cls-23" d="M585.83,315.4C577,308.77,568,315,563.31,322S562,345,562,345s1.77,0,1.77-.66-4.86-18.77,6.62-26.94c7.18-5.11,12.36-2.65,13-.22s-2.87,6.85-2.87,6.85Z"/><path class="cls-24" d="M565.52,301.78c8.83,0,11.7,13.69,9.27,21.64s-5.74,22.74-5.74,22.74l-2.2-2.21s8.39-20.75,6.4-30-6.85-10.81-7.73-10.81S565.52,301.78,565.52,301.78Z"/><path class="cls-23" d="M572.93,323.48a6.43,6.43,0,0,1,2.32-2,15.81,15.81,0,0,1-.46,1.89c-1.1,3.62-2.39,8.66-3.47,13.08l-.48-2.78c-.05-.32-.1-.67-.13-1A85.8,85.8,0,0,0,572.93,323.48Z"/><path class="cls-24" d="M575.34,323.55c16.78-7.07,7.94-16.76,22.74-10.36a11,11,0,0,1,3.58,3.15,10.86,10.86,0,0,1-4.69.38c-4.41-.66-2.87,2.87,4.42,3.75a17,17,0,0,1,3.41.72c3.47,6.67,5,15.44-2.31,18.49a16.74,16.74,0,0,1-5.23,1.08c-2.26-1.81.56-12.23-2.94-10.79s1,8.93.45,10.84a48.25,48.25,0,0,1-10.48-1.47,5.19,5.19,0,0,1-2.77-3.19c-1.11-4.64,6.18-7.51,6.4-11.48.2-3.65-2.67,8-10.28,9.76C570.75,331.21,567.5,326.85,575.34,323.55Z"/><path class="cls-24" d="M563.39,311.05c1.76-3.75-2.87-4.63-2.65-1.76.19,2.54.22,8.72-2.39,10.41a40.9,40.9,0,0,1-15.25-5.07,1.85,1.85,0,0,1,.2-1.15c2-4,14.79-7.28,10.81-8.61-3.16-1.05-8.71,5.17-13.18,8.31-2.68-2-4.48-4.46-4.48-7.17,0-3.67,4.46-7.82,10.22-9.81,2.6.26,5,1.68,8.77,3.81,5.56,3.16,4.27-1.94-1-5a15.84,15.84,0,0,1,12.4,6.8s-.32,2,1.78,5c5.71,8.35-.89,13.23-8.77,12.91C560.31,317.61,562.17,313.65,563.39,311.05Z"/><path class="cls-23" d="M585.3,315c4.32,3.34,9.12,7.24,15,9.89S605,336.19,605,336.19s.88-7.45-4-10-8.14-5.59-11.87-6.18a53.85,53.85,0,0,1-5.79-1.18s1.18-2.35.49-3.23S585.3,315,585.3,315Z"/><path class="cls-23" d="M606.59,275.84c-15.8,4.22-27.38,14.33-29.54,16.78s-2.16,3.14-2.16,3.14l1.67,3.14.78-.39s-1.27-2.65,2.06-6.08c5.76-5.93,12.76-10.6,17.57-12.66S606.59,275.84,606.59,275.84Z"/><path class="cls-15" d="M565.38,341.65h1.23a10.18,10.18,0,0,1,10.18,10.18V363.3a0,0,0,0,1,0,0H555.2a0,0,0,0,1,0,0V351.83A10.18,10.18,0,0,1,565.38,341.65Z" transform="translate(1131.98 704.95) rotate(-180)"/><rect class="cls-4" x="555.2" y="344.13" width="21.58" height="1.52"/><rect class="cls-4" x="555.2" y="346.9" width="21.58" height="0.89"/><path class="cls-12" d="M307,52a29.85,29.85,0,1,0-51.8,20.23,13.53,13.53,0,0,1,3.59,9.18V94.83a15.78,15.78,0,0,0,15.74,15.74h5.24a15.78,15.78,0,0,0,15.74-15.74V81.45a13.73,13.73,0,0,1,3.64-9.24A29.7,29.7,0,0,0,307,52Z"/><path class="cls-25" d="M302.8,54.05a25.68,25.68,0,1,0-44.56,17.4,11.66,11.66,0,0,1,3.08,7.9V90.86a13.59,13.59,0,0,0,13.54,13.54h4.52a13.59,13.59,0,0,0,13.54-13.54V79.35a11.79,11.79,0,0,1,3.13-7.95A25.59,25.59,0,0,0,302.8,54.05Z"/><path class="cls-26" d="M281.53,86.82H271.7a.91.91,0,0,1-.89-.82c0-.19-1.85-19.16-10.33-24.47a.9.9,0,1,1,.95-1.52c8.27,5.18,10.62,21.17,11.08,25h8.08a29.39,29.39,0,0,1,.8-7.17A39.41,39.41,0,0,1,291,60.16a.89.89,0,0,1,1.31,1.21c-11.15,12.15-9.91,24.33-9.9,24.45a.89.89,0,0,1-.89,1Z"/><path class="cls-26" d="M288.89,62.75c-3.32,0-7.84-2.36-12.61-4.92-6.15,3.28-11.9,6.22-15.12,4.27-1.51-.91-2.23-2.71-2.21-5.48,0-2.61.78-4.37,2.23-5.24,3.22-1.9,9,1.14,15.11,4.43,6.24-3.33,12.12-6.43,15.33-4.48,1.45.88,2.16,2.66,2.13,5.31s-.83,4.59-2.35,5.49A4.85,4.85,0,0,1,288.89,62.75Zm-10.71-5.93c4.91,2.61,10,5.11,12.31,3.77.95-.56,1.44-1.89,1.47-4s-.4-3.23-1.27-3.75C288.5,51.52,283.18,54.17,278.18,56.82Zm-14.59-4.25a2.92,2.92,0,0,0-1.5.35c-.88.52-1.33,1.77-1.35,3.71s.44,3.39,1.35,3.94c2.2,1.34,7.36-1.14,12.3-3.75C270.39,54.69,266.2,52.57,263.59,52.57Z"/><rect class="cls-26" x="270.9" y="106.95" width="13.05" height="7.86" rx="3.71"/><path class="cls-26" d="M257.89,85.21v9.46a16.53,16.53,0,0,0,16.48,16.48h5.5a16.53,16.53,0,0,0,16.48-16.48V85.21Z"/><rect class="cls-27" x="256.39" y="83.66" width="41.94" height="4.53" rx="2.13"/><rect class="cls-27" x="256.39" y="89.38" width="41.94" height="4.53" rx="2.14" transform="translate(-9.14 34.69) rotate(-7.04)"/><rect class="cls-27" x="256.39" y="95.92" width="41.94" height="4.53" rx="2.14" transform="translate(-9.94 34.74) rotate(-7.04)"/><rect class="cls-27" x="260.53" y="102.53" width="35.29" height="4.53" rx="1.97" transform="translate(-10.75 34.89) rotate(-7.04)"/><rect class="cls-27" x="170.89" y="100.33" width="4.38" height="12.68"/><rect class="cls-27" x="227.04" y="104.46" width="4.38" height="8.55"/><rect class="cls-27" x="189.45" y="83.35" width="4.38" height="29.66"/><rect class="cls-27" x="198.74" y="99.68" width="4.38" height="13.33"/><rect class="cls-27" x="208.02" y="95.91" width="4.38" height="17.1"/><rect class="cls-27" x="180.17" y="91.97" width="4.38" height="21.04"/><rect class="cls-27" x="217.33" y="87.09" width="4.38" height="25.92"/><rect class="cls-27" x="102.93" y="32.33" width="77.01" height="34.8" rx="8.17"/><rect class="cls-4" x="105.04" y="41.47" width="72.8" height="24.02" rx="6.6"/><rect class="cls-4" x="106.11" y="34.89" width="3.02" height="2.72" rx="1.28"/><rect class="cls-4" x="111.59" y="34.89" width="3.02" height="2.72" rx="1.28"/><rect class="cls-4" x="117.08" y="34.89" width="3.02" height="2.72" rx="1.28"/><path class="cls-27" d="M174.87,46.74h-38.5a1.16,1.16,0,0,1,0-2.31h38.5a1.16,1.16,0,1,1,0,2.31Z"/><path class="cls-27" d="M145.91,64.51h-38.5a1.15,1.15,0,1,1,0-2.3h38.5a1.15,1.15,0,1,1,0,2.3Z"/><rect class="cls-27" x="148.63" y="62.21" width="4.77" height="2.3" rx="1.09"/><rect class="cls-27" x="154.63" y="62.21" width="4.77" height="2.3" rx="1.09"/><path class="cls-27" d="M175.24,51.76H111.48a.78.78,0,0,1-.78-.78.79.79,0,0,1,.78-.79h63.76A.8.8,0,0,1,176,51,.79.79,0,0,1,175.24,51.76Z"/><path class="cls-27" d="M175.24,55.13H111.48a.78.78,0,0,1,0-1.56h63.76a.78.78,0,1,1,0,1.56Z"/><path class="cls-28" d="M367.61,45H334.73V25.81h24.73c3.18,3.18,5,5,8.15,8.15Z"/><polygon class="cls-29" points="358.86 25.8 358.86 36.03 367.61 36.03 367.61 34.07 359.4 25.86 358.86 25.8"/><polygon class="cls-28" points="359.46 25.8 359.46 34.07 367.61 34.07 359.46 25.8"/><path class="cls-4" d="M353.09,33H338.44a.58.58,0,0,1,0-1.16h14.65a.58.58,0,1,1,0,1.16Z"/><path class="cls-4" d="M353.09,36H338.44a.58.58,0,1,1,0-1.16h14.65a.58.58,0,1,1,0,1.16Z"/><path class="cls-4" d="M353.09,39.1H338.44a.59.59,0,0,1,0-1.17h14.65a.59.59,0,0,1,0,1.17Z"/><circle class="cls-7" cx="350.19" cy="27.28" r="0.98"/><rect class="cls-30" x="203.12" y="24.53" width="20.9" height="25.2" transform="translate(10.92 -39.84) rotate(10.94)"/><path class="cls-27" d="M221.88,37.44,211,35.34a.54.54,0,1,1,.2-1.06l10.88,2.11a.52.52,0,0,1,.42.62A.53.53,0,0,1,221.88,37.44Z"/><path class="cls-27" d="M221.35,40.16l-10.88-2.1a.53.53,0,0,1-.42-.63.54.54,0,0,1,.63-.43l10.87,2.11a.53.53,0,0,1,.43.62A.55.55,0,0,1,221.35,40.16Z"/><path class="cls-27" d="M220.81,43l-10.88-2.1a.54.54,0,1,1,.21-1.05L221,41.9a.55.55,0,0,1,.43.63A.53.53,0,0,1,220.81,43Z"/><path class="cls-7" d="M214.51,26.1a.89.89,0,1,1-.71-1.05A.89.89,0,0,1,214.51,26.1Z"/><path class="cls-27" d="M382.79,71.79,351,68.44l2.1-19.9,25.18,2.65,5.88,7.27Z"/><polygon class="cls-4" points="377.86 52.61 354.22 50.12 352.45 66.91 381.84 70.01 382.87 60.17 377.12 59.57 377.86 52.61"/><path class="cls-27" d="M374.65,58.71,359.34,57.1a.64.64,0,1,1,.14-1.28l15.31,1.61a.64.64,0,0,1-.14,1.28Z"/><path class="cls-27" d="M374.3,62.08,359,60.47a.64.64,0,1,1,.13-1.27l15.31,1.61a.64.64,0,1,1-.13,1.27Z"/><path class="cls-27" d="M373.93,65.61,358.61,64a.64.64,0,0,1-.57-.7.65.65,0,0,1,.71-.57l15.31,1.61a.64.64,0,0,1-.13,1.28Z"/><circle class="cls-7" cx="365.01" cy="53.13" r="0.98"/><path class="cls-24" d="M540.57,37.61a11,11,0,1,1-11-11A11,11,0,0,1,540.57,37.61Z"/><path class="cls-4" d="M528.52,41.36h0a.55.55,0,0,1-.38-.18l-3-3.39a.54.54,0,0,1,.81-.71l2.6,3,6-5.83a.54.54,0,0,1,.75.77l-6.36,6.23A.58.58,0,0,1,528.52,41.36Z"/><rect class="cls-27" x="32.67" y="110.91" width="69.1" height="28.48" rx="13.43" transform="translate(134.45 250.29) rotate(-180)"/><path class="cls-27" d="M93.43,135.09V150.8L75.32,132.69S93.06,135.09,93.43,135.09Z"/><rect class="cls-4" x="36.25" y="113.73" width="61.95" height="22.83" rx="10.77" transform="translate(134.45 250.29) rotate(-180)"/><path class="cls-27" d="M64.46,119.38h28a1.23,1.23,0,0,0,0-2.46h-28a1.23,1.23,0,0,0,0,2.46Z"/><rect class="cls-27" x="40.4" y="122.69" width="53.27" height="1.38" rx="0.65" transform="translate(134.08 246.76) rotate(-180)"/><rect class="cls-27" x="40.4" y="125.36" width="53.27" height="1.38" rx="0.65" transform="translate(134.08 252.1) rotate(180)"/></g></g></svg>